<?xml version="1.0" standalone="no"?>
<!DOCTYPE svg PUBLIC "-//W3C//DTD SVG 20010904//EN"
 "http://www.w3.org/TR/2001/REC-SVG-20010904/DTD/svg10.dtd">
<svg version="1.0" xmlns="http://www.w3.org/2000/svg"
 width="161.000000pt" height="66.000000pt" viewBox="0 0 161.000000 66.000000"
 preserveAspectRatio="xMidYMid meet">

<g transform="translate(0.000000,66.000000) scale(0.100000,-0.100000)"
fill="#000000" stroke="none">
<path d="M1192 462 c-14 -14 -22 -48 -32 -127 l-13 -108 23 -19 c28 -22 63
-20 68 5 2 11 -3 17 -17 17 -30 0 -33 13 -20 84 12 65 12 65 48 68 25 2 37 8
39 21 3 14 -4 17 -34 17 -35 0 -36 1 -30 30 6 34 -5 39 -32 12z"/>
<path d="M180 423 c-53 -60 -128 -172 -132 -197 -3 -23 33 -46 72 -46 36 0 86
34 105 71 10 19 19 68 22 125 7 113 -3 120 -67 47z"/>
<path d="M1395 422 c-72 -12 -125 -70 -125 -136 0 -75 86 -120 158 -82 47 24
74 62 79 108 4 37 1 49 -21 75 -26 31 -54 42 -91 35z m46 -52 c14 -8 19 -21
19 -49 0 -31 -6 -44 -31 -65 -54 -46 -109 -26 -109 39 0 25 8 40 31 59 33 28
59 32 90 16z"/>
<path d="M48 397 c-33 -28 -48 -58 -48 -94 0 -28 15 -62 23 -53 5 6 77 161 77
166 0 11 -29 1 -52 -19z"/>
<path d="M342 400 c-124 -76 -75 -237 62 -199 25 7 36 16 36 29 0 16 -4 17
-28 8 -34 -13 -77 -4 -86 17 -4 11 1 15 17 15 38 0 92 19 115 40 26 24 29 72
6 94 -21 22 -82 20 -122 -4z m88 -45 c0 -31 -29 -47 -78 -43 l-37 3 32 33 c40
40 83 45 83 7z"/>
<path d="M515 408 c-14 -40 -35 -202 -27 -210 14 -14 42 2 42 26 0 43 23 100
50 128 28 27 73 38 84 19 4 -5 -1 -42 -9 -82 -17 -80 -14 -102 12 -97 12 2 20
21 29 68 18 92 17 124 -4 143 -21 19 -74 22 -104 6 -14 -8 -23 -8 -31 0 -15
15 -37 14 -42 -1z"/>
<path d="M730 402 c0 -9 8 -49 19 -87 10 -39 21 -82 25 -97 4 -16 10 -28 16
-28 8 0 140 212 140 225 0 4 -10 5 -22 3 -15 -2 -34 -24 -62 -72 -42 -73 -48
-73 -60 -1 -4 22 -9 48 -12 58 -7 23 -44 23 -44 -1z"/>
<path d="M980 402 c-44 -24 -84 -95 -75 -137 12 -65 68 -91 129 -60 33 17 39
19 32 6 -7 -11 17 -21 31 -13 12 8 47 201 38 210 -3 3 -31 7 -63 9 -43 3 -66
-1 -92 -15z m98 -21 c24 -15 -7 -112 -44 -136 -51 -33 -91 -9 -81 51 7 45 30
71 71 83 41 12 39 12 54 2z"/>
<path d="M1535 399 c4 -6 9 -8 13 -5 3 3 10 -1 16 -10 14 -19 46 -9 46 15 0
14 -2 14 -10 1 -8 -12 -13 -13 -30 -2 -24 15 -44 16 -35 1z"/>
</g>
</svg>
